<svg xmlns="http://www.w3.org/2000/svg" viewBox="0 0 400 460"><defs><mask id="m3g" maskUnits="userSpaceOnUse" x="0" y="0" width="400" height="460"><g fill="white"><g transform="translate(118,70) rotate(-34.04)"><polygon points="0.00,-4.00 34.00,14.00 10.00,42.00 -14.00,22.00" /><polygon points="-8.00,0.00 -8.00,364.44 8.00,364.44 8.00,0.00" /><polygon points="-13.00,300.44 -13.00,364.44 13.00,364.44 13.00,300.44" /><polygon points="-13.00,313.36 13.00,323.36 13.00,329.36 -13.00,319.36" /><polygon points="-13.00,327.44 13.00,337.44 13.00,343.44 -13.00,333.44" /><polygon points="-13.00,341.52 13.00,351.52 13.00,357.52 -13.00,347.52" /></g><g transform="translate(282,70) rotate(34.04)"><polygon points="0.00,-4.00 34.00,14.00 10.00,42.00 -14.00,22.00" /><polygon points="-8.00,0.00 -8.00,364.44 8.00,364.44 8.00,0.00" /><polygon points="-13.00,300.44 -13.00,364.44 13.00,364.44 13.00,300.44" /><polygon points="-13.00,313.36 13.00,323.36 13.00,329.36 -13.00,319.36" /><polygon points="-13.00,327.44 13.00,337.44 13.00,343.44 -13.00,333.44" /><polygon points="-13.00,341.52 13.00,351.52 13.00,357.52 -13.00,347.52" /></g><polygon points="70.00,120.00 190.00,120.00 200.00,88.00 210.00,120.00 330.00,120.00 330.00,250.00 200.00,402.00 70.00,250.00" /><circle cx="200" cy="54" r="42" /></g><g fill="black"><g transform="translate(145,145)"><polygon points="9.00,0.00 9.00,190.00 23.00,190.00 23.00,0.00" /><polygon points="23.00,10.00 66.00,24.00 23.00,40.00" /><polygon points="25.54,92.24 113.54,10.24 94.46,-10.24 6.46,71.76" /><polygon points="5.15,90.84 93.15,198.84 114.85,181.16 26.85,73.16" /></g><circle cx="200" cy="54" r="25" /></g></mask></defs><g mask="url(#m3g)"><rect x="0" y="0" width="400" height="460" fill="#0B3B18"/></g></svg>